<?xml version="1.0" encoding="UTF-8"?>
<svg xmlns="http://www.w3.org/2000/svg" viewBox="0 0 508.42 508.42">
  <defs>
    <style>
      .cls-1 {
        fill: #f8f7f4;
      }

      .cls-2 {
        fill: #b6d8eb;
      }

      .cls-3 {
        fill: #243846;
      }
    </style>
  </defs>
  <g id="Layer_1" data-name="Layer 1">
    <g>
      <rect class="cls-2" x="75.25" y="75.25" width="357.92" height="357.92"/>
      <path class="cls-1" d="m432.37,76.04v356.33H76.04V76.04h356.33m1.59-1.59H74.46v359.5h359.5V74.46h0Z"/>
    </g>
  </g>
  <g id="Layer_2" data-name="Layer 2">
    <g>
      <rect class="cls-3" x="75.25" y="75.25" width="357.92" height="357.92" transform="translate(-105.3 254.21) rotate(-45)"/>
      <path class="cls-1" d="m254.21,2.25l251.96,251.96-251.96,251.96L2.25,254.21,254.21,2.25m0-2.25L0,254.21l254.21,254.21,254.21-254.21L254.21,0h0Z"/>
    </g>
  </g>
  <g id="Layer_4" data-name="Layer 4">
    <path class="cls-1" d="m248.53,145.77c-58.11,58.27-116.22,116.54-174.33,174.81-4.55,4.56,2.52,11.64,7.07,7.07,58.11-58.27,116.22-116.54,174.33-174.81,4.55-4.56-2.52-11.64-7.07-7.07h0Z"/>
    <path class="cls-1" d="m351.95,250.19h-205.82c-6.43,0-6.45,10,0,10h205.82c6.43,0,6.45-10,0-10h0Z"/>
    <path class="cls-1" d="m258.38,251.83c-22.96,22.88-45.93,45.75-68.89,68.63-4.57,4.55,2.42,11.52,7.07,7.07,2.76-2.64,5.52-5.27,8.27-7.91,4.66-4.46-2.42-11.52-7.07-7.07-2.76,2.64-5.52,5.27-8.27,7.91l7.07,7.07c22.96-22.88,45.93-45.75,68.89-68.63,4.57-4.55-2.5-11.62-7.07-7.07h0Z"/>
    <path class="cls-1" d="m193.3,329.08h115.56c6.43,0,6.45-10,0-10h-115.56c-6.43,0-6.45,10,0,10h0Z"/>
    <path class="cls-1" d="m304.65,321.32c-22.44,22.51-44.88,45.02-67.32,67.53l7.07,7.07c2.33-2.4,4.66-4.79,6.99-7.19,4.49-4.62-2.58-11.7-7.07-7.07-2.33,2.4-4.66,4.79-6.99,7.19-4.49,4.62,2.52,11.64,7.07,7.07,22.44-22.51,44.88-45.02,67.32-67.53,4.55-4.56-2.52-11.64-7.07-7.07h0Z"/>
    <path class="cls-1" d="m249.79,154.95c58.4,58.56,116.79,117.12,175.19,175.68,4.55,4.56,11.62-2.51,7.07-7.07-58.4-58.56-116.79-117.12-175.19-175.68-4.55-4.56-11.62,2.51-7.07,7.07h0Z"/>
  </g>
</svg>